# xmcd CD database file
#
# Track frame offsets:
#	150
#	22837
#	43352
#	74967
#	94455
#	114885
#	142170
#	169080
#	205710
#	221230
#	235350
#	249250
#	262335
#	275002
#	288702
#	301312
#
# Disc length: 4184 seconds
#
# Revision: 1
# Processed by: cddbd v1.5.2PL0 Copyright (c) Steve Scherf et al.
# Submitted via: CDex 1.93
#
DISCID=09105610
DTITLE=Benny_Carter - skyline drive and towards
DYEAR=1982
DGENRE=Jazz
TTITLE0=Doozy
TTITLE1=I'm the Caring Kind
TTITLE2=Easy Money
TTITLE3=Gorgeous! Georg!
TTITLE4=Stompin' at the Savoy
TTITLE5=I Want to Be Happy
TTITLE6=Love for Sale
TTITLE7=When the Lights Are Low
TTITLE8=I'd Love It
TTITLE9=I Never Knew
TTITLE10=Symphony in Riffs
TTITLE11=Some of These Days
TTITLE12=My Buddy
TTITLE13=I'm Coming Virginia
TTITLE14=I'm in the Mood for Swing
TTITLE15=Sugar
EXTD=YEAR: 1982
EXTT0=
EXTT1=
EXTT2=
EXTT3=
EXTT4=
EXTT5=
EXTT6=
EXTT7=
EXTT8=
EXTT9=
EXTT10=
EXTT11=
EXTT12=
EXTT13=
EXTT14=
EXTT15=
PLAYORDER=
